<svg width="458" height="78" viewBox="0 0 458 78" fill="none" xmlns="http://www.w3.org/2000/svg">
<path d="M55.4273 53.4C55.4273 53.9 55.3273 54.3 55.3273 54.7C54.8273 58.7 53.5273 62.6 51.4273 66.2C49.3273 69.8 46.4273 72.6 42.9273 74.6C41.6273 75.2 40.2273 75.7 38.8273 76.2C37.4273 76.6 36.0273 77 34.6273 77.3C33.4273 77.5 32.3273 77.7 31.1273 77.8C29.9273 77.9 28.8273 78 27.7273 78C27.5273 78 27.3273 78 27.1273 78C26.9273 78 26.7273 78 26.5273 78C21.9273 77.8 17.3273 76.8 12.8273 74.9C8.42731 72.9 4.42731 70.4 0.927307 67.2L10.2273 52.3C10.3273 52.4 10.3273 52.4 10.4273 52.5C10.4273 52.5 10.5273 52.6 10.6273 52.7C12.7273 55 15.1273 57.2 17.7273 59.1C20.3273 61 23.4273 62.1 26.8273 62.3C26.9273 62.3 27.0273 62.3 27.1273 62.4C27.2273 62.4 27.3273 62.5 27.4273 62.5C27.5273 62.5 27.6273 62.5 27.7273 62.6C27.8273 62.6 27.9273 62.7 28.0273 62.7C28.3273 62.7 28.6273 62.7 29.0273 62.6C29.3273 62.6 29.7273 62.5 30.0273 62.4C31.2273 62.2 32.4273 61.7 33.5273 61C34.6273 60.3 35.5273 59.5 36.1273 58.4C36.2273 58.2 36.3273 58.1 36.3273 57.9C36.4273 57.7 36.5273 57.6 36.5273 57.4C36.7273 56.9 36.8273 56.4 36.8273 55.9C36.9273 55.4 36.9273 55 36.9273 54.6C36.9273 52.5 36.0273 50.7 34.2273 49.3C32.4273 47.9 30.4273 46.8 28.3273 46C27.4273 45.7 26.6273 45.4 25.9273 45.2C25.1273 45 24.4273 44.8 23.7273 44.7C23.6273 44.7 23.5273 44.7 23.5273 44.6C23.4273 44.6 23.3273 44.5 23.3273 44.5C19.5273 43.6 15.9273 42.1 12.6273 40C9.32731 37.9 7.02731 35 5.72731 31.1C5.52731 30.3 5.32731 29.5 5.12731 28.7C4.92731 27.8 4.82731 27 4.72731 26C4.62731 25.7 4.62731 25.4 4.62731 25.1C4.62731 24.8 4.62731 24.5 4.62731 24.2C4.62731 23.6 4.62731 23 4.72731 22.3C4.72731 21.7 4.82731 21.1 5.02731 20.4C5.22731 18.9 5.62731 17.3 6.22731 15.8C6.72731 14.3 7.42731 12.9 8.32731 11.6C10.8273 7.49999 14.0273 4.59999 17.9273 2.79999C21.6273 1.29999 25.7273 0.399994 29.9273 0.399994C30.9273 0.399994 31.9273 0.499994 33.0273 0.599994C34.0273 0.699994 35.1273 0.899994 36.2273 0.999994C39.0273 1.49999 41.8273 2.19999 44.5273 3.29999C47.2273 4.39999 49.8273 5.69999 52.1273 7.09999L45.7273 21.4C43.6273 19.9 41.4273 18.5 39.1273 17.3C36.8273 16.1 34.3273 15.6 31.6273 15.6C31.4273 15.6 31.3273 15.6 31.1273 15.6C30.9273 15.6 30.8273 15.6 30.6273 15.6C28.8273 15.8 27.2273 16.6 25.6273 18C24.1273 19.4 23.3273 20.8 23.3273 22.4C23.3273 22.6 23.3273 22.9 23.4273 23.1C23.4273 23.3 23.5273 23.6 23.7273 23.8C23.9273 24.3 24.1273 24.8 24.5273 25.3C24.9273 25.8 25.3273 26.2 25.8273 26.6C26.7273 27.3 27.9273 27.9 29.5273 28.5C31.1273 29.1 32.8273 29.6 34.6273 30.2C36.1273 30.6 37.5273 31 38.9273 31.3C40.3273 31.6 41.5273 32 42.4273 32.3C46.7273 33.8 50.0273 36.4 52.2273 40C54.4273 43.6 55.5273 47.4 55.6273 51.4C55.6273 51.6 55.6273 51.7 55.6273 51.7C55.6273 51.8 55.6273 51.9 55.6273 51.9C55.5273 52.4 55.5273 52.9 55.4273 53.4ZM115.427 59.6V76.2H70.0273V2.19999H115.427V18.4H89.9273V31.3H113.927V47.1H89.9273V59.6H115.427ZM192.027 56.7C189.627 61.8 186.227 66 181.727 69.2C178.127 71.7 174.127 73.4 169.927 74.3C165.627 75.2 161.327 75.8 157.027 76C155.827 76.1 154.527 76.1 153.327 76.1C152.127 76.1 150.927 76.1 149.827 76.1H129.527V2.09999H151.127C152.327 2.09999 153.427 2.09999 154.627 2.09999C155.827 2.09999 157.027 2.09999 158.127 2.19999C162.327 2.39999 166.427 2.99999 170.527 3.89999C174.627 4.79999 178.327 6.49999 181.727 8.99999C186.027 12 189.427 16 191.827 21C194.227 26 195.627 31.1 195.927 36.3C196.027 36.8 196.027 37.2 196.027 37.7C196.027 38.2 196.027 38.6 196.027 39.1C196.027 39.3 196.027 39.6 196.027 39.9C196.027 40.2 196.027 40.4 196.027 40.7C195.727 46.3 194.427 51.6 192.027 56.7ZM175.627 38.4C175.627 38.1 175.627 37.8 175.527 37.5C175.327 34.6 174.627 31.7 173.427 29C172.227 26.3 170.527 24.1 168.327 22.4C166.727 21.1 164.927 20.2 162.927 19.7C160.927 19.2 158.927 19 156.827 18.9C156.427 18.9 156.027 18.9 155.627 18.9C155.227 18.9 154.827 18.9 154.427 18.9H149.327V59.7C149.527 59.7 149.827 59.7 150.127 59.8C150.427 59.8 150.627 59.9 150.927 59.9C151.227 59.9 151.527 59.9 151.727 60C151.927 60 152.227 60.1 152.427 60.1C153.227 60.1 154.027 60.1 154.827 60C155.727 60 156.527 59.9 157.227 59.8C159.227 59.6 161.227 59.3 163.127 58.8C165.027 58.3 166.827 57.4 168.327 56.4C170.827 54.6 172.627 52.2 173.827 49.1C175.027 46 175.627 42.8 175.627 39.5C175.627 39 175.627 38.7 175.627 38.4ZM285.227 42.3C285.227 43.1 285.127 43.9 284.927 44.7C284.727 46.3 284.527 47.9 284.027 49.5C283.627 51.1 283.027 52.7 282.427 54.2C279.127 61.7 274.127 67.5 267.227 71.7C260.327 75.8 253.127 77.9 245.527 77.9C245.027 77.9 244.427 77.9 243.927 77.8C243.427 77.8 242.927 77.7 242.327 77.7C239.727 77.5 237.127 77 234.527 76.3C231.927 75.6 229.427 74.6 227.027 73.4C220.527 70 215.427 65.1 211.727 58.8C208.027 52.5 206.127 45.9 206.127 39.1C206.127 38.1 206.127 37.1 206.227 36.1C206.327 35.1 206.427 34 206.727 33C207.127 31 207.627 29 208.327 26.9C209.027 24.9 209.827 22.9 210.927 21C214.527 14.4 219.427 9.39999 225.827 5.89999C232.127 2.39999 238.827 0.699994 245.727 0.699994C246.627 0.699994 247.627 0.699994 248.527 0.799994C249.527 0.899994 250.427 0.999994 251.327 0.999994C254.227 1.39999 257.027 2.09999 259.827 3.09999C262.627 4.09999 265.327 5.39999 267.927 6.99999C273.427 10.6 277.727 15.3 280.727 21.2C283.727 27.1 285.227 33.3 285.227 39.7C285.227 40.7 285.227 41.5 285.227 42.3ZM265.027 38.1C265.027 37.6 264.927 37.2 264.927 36.7C264.527 33.4 263.527 30.2 261.927 27.1C260.327 24 258.027 21.6 255.227 19.9C254.427 19.5 253.727 19.2 252.927 18.9C252.127 18.6 251.427 18.3 250.627 18.1C249.827 17.9 249.127 17.8 248.327 17.7C247.527 17.6 246.827 17.5 246.027 17.5C242.127 17.5 238.427 18.7 235.127 21.2C231.827 23.7 229.427 27 228.127 31.1C228.027 31.3 228.027 31.4 227.927 31.6C227.927 31.8 227.827 31.9 227.827 32.1C227.627 32.8 227.427 33.5 227.227 34.2C227.027 34.9 226.927 35.7 226.727 36.5C226.627 37 226.627 37.6 226.527 38.1C226.527 38.6 226.427 39.1 226.427 39.7C226.427 40 226.427 40.3 226.427 40.6C226.427 40.9 226.427 41.2 226.527 41.5C226.727 45.6 228.027 49.5 230.327 53.2C232.627 56.9 235.727 59.3 239.827 60.5C240.327 60.7 240.727 60.8 241.227 60.9C241.727 61 242.227 61.1 242.727 61.2C243.227 61.3 243.627 61.3 244.127 61.4C244.627 61.4 245.027 61.5 245.527 61.5C249.627 61.5 253.327 60.3 256.627 57.8C259.927 55.4 262.327 52.1 263.727 48C263.927 47.2 264.127 46.4 264.327 45.6C264.527 44.7 264.627 43.9 264.727 43C264.827 42.5 264.827 41.9 264.927 41.4C264.927 40.9 265.027 40.4 265.027 39.9C265.027 39.1 265.027 38.6 265.027 38.1ZM352.527 76.2L324.427 38C323.627 37.1 322.927 36 322.227 34.7C321.527 33.4 320.827 32.1 320.227 30.7C319.727 29.7 319.327 28.7 318.927 27.7C318.527 26.7 318.127 25.8 317.727 25C318.127 27.4 318.427 29.8 318.627 32.3C318.827 34.8 318.927 37.3 318.927 39.7V76.2H299.427V2.19999H318.927L346.827 40.2C347.527 41.3 348.227 42.4 348.827 43.6C349.527 44.8 350.127 46 350.727 47.3C351.227 48.3 351.627 49.3 352.127 50.3C352.627 51.3 353.027 52.3 353.527 53.2C353.427 52.3 353.327 51.5 353.227 50.8C353.127 50 353.027 49.2 352.927 48.4C352.727 46.9 352.627 45.3 352.627 43.6C352.527 42 352.527 40.3 352.527 38.6V2.29999H371.927V76.3H352.527V76.2ZM437.627 76.2L433.927 62.9H405.327L401.527 76.3H381.527L406.927 2.29999H432.127L457.827 76.3H437.627V76.2ZM422.127 24.1C421.727 22.9 421.327 21.7 421.027 20.4C420.727 19.1 420.427 17.9 420.127 16.6C419.927 16.1 419.827 15.7 419.827 15.3C419.727 14.9 419.627 14.5 419.627 14.1C419.527 14.5 419.427 14.9 419.327 15.3C419.227 15.7 419.127 16.2 419.027 16.6C418.927 16.8 418.927 16.9 418.927 17C418.927 17.1 418.927 17.3 418.827 17.4C418.627 18.6 418.327 19.7 418.027 20.8C417.727 21.9 417.427 23 417.127 24.1L409.627 48.6H429.727L422.127 24.1Z" fill="white"/>
</svg>
